<svg aria-label="Mars Block" viewBox="0 0 32 32" xmlns="http://www.w3.org/2000/svg">
  
  <rect fill="#1a1a1a" rx="4" height="32" width="32"></rect>
  
  
  
  <path fill="#c1442e" d="M8 12 L16 7 L24 12 L16 17 Z"></path>
  
  
  <path fill="#9b2f1f" d="M8 12 L16 17 L16 25 L8 20 Z"></path>
  
  
  <path fill="#a83a28" d="M16 17 L24 12 L24 20 L16 25 Z"></path>
  
  
  
  <circle opacity="0.85" fill="#8f2a1c" r="2.2" cy="11.5" cx="13"></circle>
  <circle fill="#c1442e" r="1.4" cy="11.5" cx="13"></circle>
  
  
  <circle fill="#9b2f1f" r="1.1" cy="10" cx="18"></circle>
  <circle fill="#b13d2a" r="0.9" cy="13.5" cx="20.5"></circle>
  <circle fill="#a13a24" r="1.0" cy="14.5" cx="11"></circle>
  
  
  
  <circle fill="#6f2218" r="0.8" cy="17.5" cx="10.5"></circle>
  <circle fill="#b13d2a" r="0.7" cy="20" cx="12"></circle>
  <circle fill="#8f2a1c" r="0.6" cy="22" cx="9.5"></circle>
  
  
  <circle fill="#6f2218" r="0.9" cy="18" cx="20"></circle>
  <circle fill="#c1442e" r="0.7" cy="20.5" cx="21.5"></circle>
  <circle fill="#9b2f1f" r="0.6" cy="23" cx="19"></circle>
  
  
  <path opacity="0.4" stroke-width="1" stroke="#e06b55" fill="none" d="M9 12.5 L16 8 L23 12.5"></path>
</svg>
